<?xml version="1.0" encoding="utf-8"?>
<!-- Generator: Adobe Illustrator 22.1.0, SVG Export Plug-In . SVG Version: 6.00 Build 0)  -->
<svg version="1.1" id="Слой_1" xmlns="http://www.w3.org/2000/svg" xmlns:xlink="http://www.w3.org/1999/xlink" x="0px" y="0px"
	 viewBox="0 0 24 24" style="enable-background:new 0 0 24 24;" xml:space="preserve">
<g>
	<g>
		<g>
			<g>
				<path d="M2,2c1.2-1.2,3-2,4.8-2h10.3C20.9,0,24,3.1,24,6.9v10.3c0,3.8-3.1,6.9-6.9,6.9H6.9C3.1,24,0,20.9,0,17.1V6.9
					C0,5,0.8,3.3,2,2 M1.8,17.1c0,2.8,2.3,5.1,5.1,5.1h10.3c2.8,0,5.1-2.3,5.1-5.1V6.9c0-2.8-2.3-5.1-5.1-5.1H6.9
					C4,1.8,1.8,4,1.8,6.9V17.1z"/>
			</g>
		</g>
		<g>
			<g>
				<path d="M17.1,12c0,2.8-2.3,5.1-5.1,5.1c-2.8,0-5.1-2.3-5.1-5.1c0-2.8,2.3-5.1,5.1-5.1C14.8,6.9,17.1,9.2,17.1,12z M8.6,12
					c0,1.9,1.5,3.4,3.4,3.4c1.9,0,3.4-1.5,3.4-3.4S13.9,8.6,12,8.6C10.1,8.6,8.6,10.1,8.6,12z"/>
			</g>
		</g>
		<g>
			<g>
				<path d="M7.1,5.7L7.1,5.7c0,0.8-0.7,1.5-1.5,1.5l0,0c-0.8,0-1.5-0.7-1.5-1.5l0,0c0-0.8,0.7-1.5,1.5-1.5l0,0
					C6.4,4.2,7.1,4.8,7.1,5.7z"/>
			</g>
		</g>
	</g>
</g>
</svg>
