<?xml version="1.0" encoding="utf-8"?>
<!-- Generator: Adobe Illustrator 22.1.0, SVG Export Plug-In . SVG Version: 6.00 Build 0)  -->
<svg version="1.1" id="Слой_1" xmlns="http://www.w3.org/2000/svg" xmlns:xlink="http://www.w3.org/1999/xlink" x="0px" y="0px"
	 viewBox="0 0 24 24" style="enable-background:new 0 0 24 24;" xml:space="preserve">
<g>
	<g>
		<path d="M17,7.9c-0.3-0.1-0.6-0.1-0.9-0.1c-1.1,0-1.6,0.7-1.6,1.6v0.9H17v2.1h-2.4v10.9H12V12.4h-1.7v-2.1H12V9.4
			c0-2.4,1.5-3.7,3.9-3.7c0.4,0,0.7,0,1.1,0.1V7.9z"/>
	</g>
	<g>
		<g>
			<path d="M24,6.9v10.3c0,3.8-3.1,6.9-6.9,6.9H6.9C3.1,24,0,20.9,0,17.1V6.9C0,3.1,3.1,0,6.9,0h10.3C20.9,0,24,3.1,24,6.9z
				 M1.8,17.1c0,2.8,2.3,5.1,5.1,5.1h10.3c2.8,0,5.1-2.3,5.1-5.1V6.9c0-2.8-2.3-5.1-5.1-5.1H6.9C4,1.8,1.8,4,1.8,6.9V17.1z"/>
		</g>
	</g>
</g>
</svg>
