<?xml version="1.0" encoding="utf-8"?>
<!-- Generator: Adobe Illustrator 23.0.0, SVG Export Plug-In . SVG Version: 6.00 Build 0)  -->
<svg version="1.1" xmlns="http://www.w3.org/2000/svg" xmlns:xlink="http://www.w3.org/1999/xlink" x="0px" y="0px"
	 viewBox="0 0 198.7 63.4" style="enable-background:new 0 0 198.7 63.4;" xml:space="preserve">
<style type="text/css">
	.st0{fill:#729E5F;}
	.st1{fill:#EFC856;}
	.st2{fill:#4C547D;}
</style>
<g id="VECTOR">
</g>
<g id="FOTO">
</g>
<g id="UV">
</g>
<g id="VECTOR_1_">
</g>
<g id="БАНДАЖ">
	<g>
		<g>
			<g>
				<g>
					<g>
						<path class="st0" d="M36.1,13.3l0.2-4l0.7,0.3l-0.2,3l1.9-2.3l0.8,0.3l-2.6,3L36.1,13.3z"/>
					</g>
					<g>
						<path class="st0" d="M40.1,14.5l1.3,0.9L41,16l-1.9-1.3l2.1-3.1l1.9,1.3l-0.4,0.6l-1.3-0.9L41,13.2l1.2,0.8l-0.4,0.6l-1.2-0.8
							L40.1,14.5z"/>
					</g>
					<g>
						<path class="st0" d="M46.1,18l-0.2,0.2c-0.4,0.4-0.8,0.6-1.3,0.5c-0.5,0-0.9-0.2-1.3-0.6c-0.4-0.4-0.6-0.9-0.6-1.4
							c0-0.5,0.2-1,0.6-1.4c0.4-0.4,0.9-0.6,1.4-0.6c0.5,0,1,0.2,1.4,0.6c0.2,0.3,0.4,0.5,0.5,0.9c0.1,0.3,0.1,0.6,0,0.9l-0.7-0.2
							c0-0.2,0-0.4,0-0.6c-0.1-0.2-0.2-0.4-0.3-0.5c-0.3-0.3-0.5-0.4-0.9-0.4c-0.3,0-0.6,0.1-0.9,0.4c-0.3,0.2-0.4,0.5-0.4,0.9
							c0,0.3,0.1,0.6,0.4,0.9c0.2,0.2,0.4,0.3,0.6,0.4c0.2,0,0.4,0,0.6-0.1l-0.8-0.8l0.5-0.5L46.1,18z"/>
					</g>
					<g>
						<path class="st0" d="M46.5,22.4l0.5-0.5l-0.8-1.3l-0.7,0.2L45.1,20l3.9-0.8l0.5,0.8l-2.6,3.1L46.5,22.4z M46.9,20.4l0.5,0.9
							l1.1-1.2L46.9,20.4z"/>
					</g>
					<g>
						<path class="st0" d="M51.6,25l0.2,0.7l-3.6,1.2l-0.2-0.5l1.7-2.3l-2.2,0.7l-0.2-0.7l3.6-1.2l0.2,0.5l-1.7,2.2L51.6,25z"/>
					</g>
					<g>
						<path class="st0" d="M52.5,32.1c0,0.5-0.2,0.9-0.6,1.3c-0.4,0.3-0.8,0.5-1.4,0.5c-0.5,0-1-0.2-1.3-0.6
							c-0.4-0.4-0.5-0.8-0.5-1.3l0-1.5l3.8,0.1L52.5,32.1z M49.5,32c0,0.3,0.1,0.6,0.3,0.8c0.2,0.2,0.5,0.3,0.8,0.3
							c0.3,0,0.6-0.1,0.9-0.3s0.3-0.5,0.3-0.8l0-0.8l-2.3-0.1L49.5,32z"/>
					</g>
					<g>
						<path class="st0" d="M49,36l-0.4,1.5l-0.7-0.2l0.5-2.3l3.7,0.9l-0.5,2.2L50.9,38l0.4-1.5l-0.8-0.2l-0.3,1.4l-0.7-0.2l0.3-1.4
							L49,36z"/>
					</g>
					<g>
						<path class="st0" d="M46.9,39.7c0.2-0.3,0.4-0.6,0.6-0.8c0.3-0.2,0.5-0.2,0.8-0.2l0.1,0.7c-0.4,0-0.7,0.2-0.9,0.5
							c-0.1,0.2-0.1,0.3-0.1,0.5c0,0.1,0.1,0.2,0.2,0.3c0.1,0.1,0.2,0,0.4,0c0.1-0.1,0.3-0.2,0.5-0.5c0.1-0.1,0.2-0.2,0.3-0.3
							c0.1-0.1,0.2-0.2,0.3-0.2c0.1-0.1,0.3-0.1,0.4-0.1c0.1,0,0.3,0,0.4,0.1c0.3,0.1,0.5,0.4,0.6,0.7c0.1,0.3,0.1,0.6-0.1,0.9
							c-0.1,0.3-0.3,0.5-0.5,0.6c-0.2,0.1-0.5,0.2-0.8,0.2l-0.1-0.7c0.4,0,0.6-0.2,0.7-0.5c0.1-0.1,0.1-0.3,0.1-0.4
							c0-0.1-0.1-0.2-0.2-0.2c-0.1,0-0.2,0-0.3,0c-0.1,0.1-0.3,0.2-0.5,0.4c-0.1,0.1-0.1,0.2-0.2,0.2c0,0-0.1,0.1-0.2,0.2
							c-0.1,0.1-0.1,0.1-0.2,0.2c-0.1,0-0.1,0.1-0.2,0.1c-0.1,0-0.2,0.1-0.2,0.1c-0.1,0-0.2,0-0.3,0c-0.1,0-0.2,0-0.3-0.1
							c-0.3-0.1-0.5-0.4-0.6-0.7C46.7,40.4,46.7,40.1,46.9,39.7z"/>
					</g>
					<g>
						<path class="st0" d="M45,43c0.2-0.3,0.5-0.5,0.8-0.6s0.6-0.1,0.9,0L46.5,43c-0.4-0.1-0.7,0-1,0.4c-0.1,0.2-0.2,0.3-0.2,0.4
							c0,0.1,0.1,0.2,0.1,0.3c0.1,0.1,0.2,0.1,0.4,0c0.1-0.1,0.3-0.2,0.6-0.4c0.1-0.1,0.3-0.2,0.4-0.3c0.1-0.1,0.2-0.1,0.4-0.2
							s0.3-0.1,0.4,0c0.1,0,0.3,0.1,0.4,0.2c0.3,0.2,0.4,0.5,0.4,0.8c0,0.3-0.1,0.6-0.3,0.9c-0.2,0.2-0.4,0.4-0.7,0.5
							c-0.3,0.1-0.5,0.1-0.8,0.1l0.1-0.7c0.4,0.1,0.6,0,0.8-0.3c0.1-0.1,0.1-0.2,0.1-0.4c0-0.1-0.1-0.2-0.1-0.3
							c-0.1-0.1-0.2-0.1-0.3,0c-0.1,0-0.3,0.1-0.5,0.3c-0.1,0.1-0.2,0.1-0.2,0.2c-0.1,0-0.1,0.1-0.2,0.1c-0.1,0.1-0.2,0.1-0.2,0.1
							c-0.1,0-0.1,0-0.2,0.1c-0.1,0-0.2,0-0.2,0c-0.1,0-0.2,0-0.2-0.1s-0.2-0.1-0.3-0.1c-0.3-0.2-0.4-0.5-0.5-0.8
							C44.7,43.6,44.8,43.3,45,43z"/>
					</g>
					<g>
						<path class="st0" d="M43.4,46l-1.2,1.1l-0.5-0.5l1.7-1.6l2.6,2.7l-1.7,1.6l-0.5-0.5l1.1-1.1l-0.6-0.6l-1,1l-0.5-0.5l1-1
							L43.4,46z"/>
					</g>
					<g>
						<path class="st0" d="M39,48.5l1.3,0.7l0.5-0.3l-0.7-1.1l0.6-0.4l2,3.2l-1.3,0.8c-0.3,0.2-0.6,0.2-0.9,0.2
							c-0.3-0.1-0.6-0.3-0.8-0.6c-0.1-0.2-0.2-0.4-0.2-0.7c0-0.2,0.1-0.5,0.2-0.7l-1.5-0.8L39,48.5z M41.7,50.4l-0.6-0.9l-0.6,0.4
							c-0.1,0.1-0.2,0.2-0.2,0.3c0,0.1,0,0.3,0.1,0.4c0.1,0.1,0.2,0.2,0.3,0.3c0.1,0,0.3,0,0.4-0.1L41.7,50.4z"/>
					</g>
					<g>
						<path class="st0" d="M36.3,53.8L36,53.1l1-0.4l-1.1-2.9l0.7-0.3l1.1,2.9l0.9-0.4l0.3,0.7L36.3,53.8z"/>
					</g>
				</g>
				<g>
					<g>
						<path class="st1" d="M107.2,10.7l0.6,0.3l-1.7,3.4l-0.7-0.3l1.3-2.7l-0.7-0.1l0.1-0.7L107.2,10.7z"/>
					</g>
					<g>
						<path class="st1" d="M108.5,16c-0.4-0.3-0.6-0.6-0.6-1.1c0-0.4,0.2-0.9,0.5-1.4c0.4-0.5,0.7-0.8,1.2-0.9
							c0.4-0.1,0.8,0,1.2,0.2c0.4,0.3,0.6,0.6,0.6,1.1c0,0.4-0.2,0.9-0.5,1.4c-0.4,0.5-0.7,0.8-1.2,0.9
							C109.3,16.4,108.9,16.3,108.5,16z M108.6,14.8c0,0.2,0.1,0.4,0.3,0.6c0.2,0.2,0.4,0.2,0.6,0.1c0.2-0.1,0.5-0.3,0.7-0.6
							c0.2-0.3,0.4-0.6,0.4-0.9c0-0.2-0.1-0.4-0.3-0.6c-0.2-0.2-0.4-0.2-0.6-0.1c-0.2,0.1-0.5,0.3-0.7,0.6
							C108.8,14.3,108.7,14.6,108.6,14.8z"/>
					</g>
					<g>
						<path class="st1" d="M111.5,18.8c-0.3-0.4-0.4-0.7-0.3-1.2c0.1-0.4,0.4-0.8,0.8-1.2c0.4-0.4,0.9-0.6,1.3-0.6
							c0.4,0,0.8,0.1,1.1,0.5c0.3,0.4,0.4,0.8,0.3,1.2c-0.1,0.4-0.4,0.8-0.8,1.2c-0.4,0.4-0.9,0.6-1.3,0.6
							C112.2,19.3,111.8,19.2,111.5,18.8z M111.9,17.7c-0.1,0.2,0,0.4,0.1,0.6c0.2,0.2,0.4,0.3,0.6,0.2c0.2,0,0.5-0.2,0.8-0.5
							c0.3-0.3,0.5-0.5,0.6-0.8c0.1-0.2,0-0.5-0.1-0.6c-0.2-0.2-0.4-0.3-0.6-0.2c-0.2,0-0.5,0.2-0.8,0.5
							C112.2,17.2,112,17.5,111.9,17.7z"/>
					</g>
					<g>
						<path class="st1" d="M113.9,20.8l3.6,0.9l0,0.4l-3.6-0.9L113.9,20.8z M115,23.6c-0.2-0.1-0.4-0.2-0.5-0.4
							c-0.1-0.2-0.1-0.5-0.1-0.7s0.2-0.4,0.4-0.5c0.2-0.1,0.4-0.1,0.7-0.1c0.2,0.1,0.4,0.2,0.5,0.4c0.1,0.2,0.1,0.5,0.1,0.7
							c-0.1,0.2-0.2,0.4-0.4,0.5C115.4,23.7,115.2,23.7,115,23.6z M114.9,22.7c0,0.1,0,0.2,0,0.3c0,0.1,0.1,0.1,0.2,0.2
							c0.1,0,0.2,0,0.3,0c0.1,0,0.1-0.1,0.2-0.2c0-0.1,0-0.2,0-0.3c0-0.1-0.1-0.1-0.2-0.2c-0.1,0-0.2,0-0.3,0S114.9,22.6,114.9,22.7
							z M116,21c-0.2-0.1-0.4-0.2-0.5-0.4c-0.1-0.2-0.1-0.5-0.1-0.7c0.1-0.2,0.2-0.4,0.4-0.5c0.2-0.1,0.4-0.1,0.7-0.1
							c0.2,0.1,0.4,0.2,0.5,0.4c0.1,0.2,0.1,0.5,0.1,0.7c-0.1,0.2-0.2,0.4-0.4,0.5C116.4,21.1,116.2,21.1,116,21z M115.9,20.1
							c0,0.1,0,0.2,0,0.3s0.1,0.1,0.2,0.2c0.1,0,0.2,0,0.3,0s0.1-0.1,0.2-0.2c0-0.1,0-0.2,0-0.3c0-0.1-0.1-0.1-0.2-0.2
							c-0.1,0-0.2,0-0.3,0C116,19.9,115.9,20,115.9,20.1z"/>
					</g>
					<g>
						<path class="st1" d="M120,28.9l0.1,0.7l-3.7,0.5l-0.1-0.6l2-1.9l-2.3,0.3l-0.1-0.7l3.7-0.5l0.1,0.6l-2,1.9L120,28.9z"/>
					</g>
					<g>
						<path class="st1" d="M116.2,34.1l0.7-0.2l0.1-1.5l-0.7-0.3l0.1-0.8l3.7,1.6l-0.1,0.9l-3.9,1L116.2,34.1z M117.7,32.7l-0.1,1
							l1.6-0.4L117.7,32.7z"/>
					</g>
					<g>
						<path class="st1" d="M118.9,39.1l-0.7-0.2l0.3-1l-2.9-0.8l0.2-0.7l2.9,0.8l0.3-1l0.7,0.2L118.9,39.1z"/>
					</g>
					<g>
						<path class="st1" d="M114.2,40.4c0.2-0.4,0.5-0.6,0.8-0.8c0.3-0.1,0.7-0.1,1,0.1l2.3,1.2l-0.3,0.7l-2.2-1.1
							c-0.2-0.1-0.3-0.1-0.5-0.1s-0.3,0.2-0.4,0.4c-0.1,0.2-0.1,0.4-0.1,0.6c0.1,0.2,0.2,0.3,0.3,0.4l2.2,1.1l-0.3,0.7l-2.3-1.2
							c-0.4-0.2-0.6-0.4-0.7-0.8C113.9,41.2,114,40.8,114.2,40.4z"/>
					</g>
					<g>
						<path class="st1" d="M111.5,44.5l1.5,0.2l0.4-0.4l-1-0.8l0.5-0.6l2.9,2.4l-1,1.2c-0.2,0.3-0.5,0.4-0.8,0.5
							c-0.3,0-0.6-0.1-0.9-0.3c-0.2-0.1-0.3-0.3-0.4-0.6c-0.1-0.2-0.1-0.5,0-0.7l-1.6-0.3L111.5,44.5z M114.7,45.4l-0.9-0.7
							l-0.5,0.6c-0.1,0.1-0.1,0.2-0.1,0.4c0,0.1,0.1,0.3,0.2,0.4c0.1,0.1,0.3,0.1,0.4,0.1c0.1,0,0.3-0.1,0.4-0.2L114.7,45.4z"/>
					</g>
					<g>
						<path class="st1" d="M108.2,47.5l0.6,0.4l1.2-0.9l-0.2-0.7l0.6-0.5l1.3,3.8l-0.7,0.6l-3.4-2.1L108.2,47.5z M110.2,47.6
							l-0.8,0.6l1.4,0.9L110.2,47.6z"/>
					</g>
					<g>
						<path class="st1" d="M106.2,49.5l-1.3,0.7l-0.3-0.6l1.9-1l1.7,3.4l-0.7,0.3L106.2,49.5z"/>
					</g>
				</g>
				<g>
					<g>
						<path class="st2" d="M179,15.5l-0.2,0.2c-0.3,0.4-0.7,0.7-1.2,0.7s-0.9-0.1-1.4-0.4c-0.5-0.3-0.7-0.8-0.8-1.3
							c-0.1-0.5,0-1,0.4-1.5c0.3-0.4,0.8-0.7,1.3-0.8c0.5-0.1,1,0,1.5,0.4c0.3,0.2,0.5,0.5,0.6,0.8c0.1,0.3,0.2,0.6,0.2,0.9
							l-0.7-0.1c0-0.2,0-0.4-0.1-0.5c-0.1-0.2-0.2-0.3-0.4-0.5c-0.3-0.2-0.6-0.3-0.9-0.2c-0.3,0.1-0.6,0.2-0.8,0.5
							c-0.2,0.3-0.3,0.6-0.2,0.9s0.2,0.6,0.5,0.8c0.2,0.2,0.5,0.3,0.7,0.3c0.2,0,0.4-0.1,0.6-0.2l-0.9-0.7l0.4-0.5L179,15.5z"/>
					</g>
					<g>
						<path class="st2" d="M179.7,18.1l0.9,1.1l-0.5,0.5l-1.4-1.6l2.8-2.5l0.5,0.6L179.7,18.1z"/>
					</g>
					<g>
						<path class="st2" d="M181.4,21.9c-0.2-0.4-0.3-0.7-0.2-1.1c0.1-0.4,0.3-0.6,0.6-0.8l2.2-1.3l0.4,0.6l-2.1,1.2
							c-0.2,0.1-0.3,0.2-0.3,0.4c0,0.2,0,0.3,0.1,0.5s0.3,0.3,0.4,0.4c0.2,0,0.3,0,0.5-0.1l2.1-1.2l0.4,0.6l-2.2,1.3
							c-0.3,0.2-0.7,0.2-1,0.1C181.9,22.5,181.7,22.2,181.4,21.9z"/>
					</g>
					<g>
						<path class="st2" d="M187.2,25.6l-0.7,0.2l-0.3-1l-2.9,1l-0.2-0.7l2.9-1l-0.3-1l0.7-0.2L187.2,25.6z"/>
					</g>
					<g>
						<path class="st2" d="M184.6,28.6l0.2,1.6l-0.7,0.1l-0.3-2.3l3.7-0.5l0.3,2.3l-0.7,0.1l-0.2-1.5l-0.8,0.1l0.2,1.4l-0.7,0.1
							l-0.2-1.4L184.6,28.6z"/>
					</g>
					<g>
						<path class="st2" d="M187.8,33.9l-0.1,0.7l-3.8-0.3l0-0.6l2.4-1.4l-2.3-0.2l0.1-0.7l3.8,0.3l0,0.6l-2.4,1.4L187.8,33.9z"/>
					</g>
					<g>
						<path class="st2" d="M185.1,41.2l0.6-1.4l-0.8-0.3l-0.6,1.4l-0.7-0.3l0.6-1.4l-1.3-0.5l0.3-0.7l3.5,1.4l-0.8,2.1L185.1,41.2z"
							/>
					</g>
					<g>
						<path class="st2" d="M180.5,42.9L182,43l0.3-0.5l-1.1-0.7l0.4-0.6l3.1,2.1l-0.8,1.3c-0.2,0.3-0.5,0.5-0.8,0.5
							c-0.3,0.1-0.7,0-0.9-0.2c-0.2-0.1-0.3-0.3-0.4-0.5c-0.1-0.2-0.1-0.5-0.1-0.7l-1.6-0.1L180.5,42.9z M183.8,43.5l-0.9-0.6
							l-0.4,0.6c-0.1,0.1-0.1,0.2-0.1,0.4c0,0.1,0.1,0.3,0.2,0.3c0.1,0.1,0.3,0.1,0.4,0.1c0.1,0,0.3-0.1,0.3-0.2L183.8,43.5z"/>
					</g>
					<g>
						<path class="st2" d="M179.2,45.5l-1.1,1.1l-0.5-0.5l1.6-1.7l2.7,2.7l-1.6,1.6l-0.5-0.5l1.1-1.1l-0.6-0.6l-1,1l-0.5-0.5l1-1
							L179.2,45.5z"/>
					</g>
					<g>
						<path class="st2" d="M176.4,48l-1.3,0.9l-0.4-0.6l1.9-1.3l2.1,3.1l-1.9,1.3l-0.4-0.6l1.3-0.9l-0.5-0.7l-1.2,0.8l-0.4-0.6
							l1.2-0.8L176.4,48z"/>
					</g>
				</g>
				<g>
					<g>
						<path class="st1" d="M96.9,36.7c-2.8,0-5.1-2.3-5.1-5.1s2.3-5.1,5.1-5.1s5.1,2.3,5.1,5.1S99.7,36.7,96.9,36.7z M96.9,27.5
							c-2.2,0-4.1,1.8-4.1,4.1s1.8,4.1,4.1,4.1c2.2,0,4.1-1.8,4.1-4.1S99.1,27.5,96.9,27.5z"/>
					</g>
					<g>
						<path class="st1" d="M96.9,25c-0.3,0-0.5-0.2-0.5-0.5v-7.4c0-0.3,0.2-0.5,0.5-0.5c0.3,0,0.5,0.2,0.5,0.5v7.4
							C97.4,24.8,97.2,25,96.9,25z"/>
					</g>
					<g>
						<path class="st1" d="M93.3,26c-0.2,0-0.4-0.1-0.5-0.3l-3.7-6.4c-0.1-0.3-0.1-0.6,0.2-0.7c0.3-0.1,0.6-0.1,0.7,0.2l3.7,6.4
							c0.1,0.3,0.1,0.6-0.2,0.7C93.5,25.9,93.4,26,93.3,26z"/>
					</g>
					<g>
						<path class="st1" d="M90.7,28.6c-0.1,0-0.2,0-0.3-0.1L84,24.8c-0.3-0.1-0.3-0.5-0.2-0.7c0.1-0.3,0.5-0.3,0.7-0.2l6.4,3.7
							c0.3,0.1,0.3,0.5,0.2,0.7C91.1,28.5,90.9,28.6,90.7,28.6z"/>
					</g>
					<g>
						<path class="st1" d="M89.8,32.1h-7.4c-0.3,0-0.5-0.2-0.5-0.5s0.2-0.5,0.5-0.5h7.4c0.3,0,0.5,0.2,0.5,0.5S90.1,32.1,89.8,32.1z
							"/>
					</g>
					<g>
						<path class="st1" d="M84.3,39.4c-0.2,0-0.4-0.1-0.5-0.3c-0.1-0.3-0.1-0.6,0.2-0.7l6.4-3.7c0.3-0.1,0.6-0.1,0.7,0.2
							c0.1,0.3,0.1,0.6-0.2,0.7l-6.4,3.7C84.5,39.3,84.4,39.4,84.3,39.4z"/>
					</g>
					<g>
						<path class="st1" d="M89.6,44.7c-0.1,0-0.2,0-0.3-0.1c-0.3-0.1-0.3-0.5-0.2-0.7l3.7-6.4c0.1-0.3,0.5-0.3,0.7-0.2
							c0.3,0.1,0.3,0.5,0.2,0.7l-3.7,6.4C90,44.6,89.8,44.7,89.6,44.7z"/>
					</g>
					<g>
						<path class="st1" d="M96.9,46.6c-0.3,0-0.5-0.2-0.5-0.5v-7.4c0-0.3,0.2-0.5,0.5-0.5c0.3,0,0.5,0.2,0.5,0.5v7.4
							C97.4,46.4,97.2,46.6,96.9,46.6z"/>
					</g>
					<g>
						<path class="st1" d="M104.1,44.7c-0.2,0-0.4-0.1-0.5-0.3L100,38c-0.1-0.3-0.1-0.6,0.2-0.7c0.3-0.1,0.6-0.1,0.7,0.2l3.7,6.4
							c0.1,0.3,0.1,0.6-0.2,0.7C104.3,44.7,104.2,44.7,104.1,44.7z"/>
					</g>
					<g>
						<path class="st1" d="M109.4,39.4c-0.1,0-0.2,0-0.3-0.1l-6.4-3.7c-0.3-0.1-0.3-0.5-0.2-0.7c0.1-0.3,0.5-0.3,0.7-0.2l6.4,3.7
							c0.3,0.1,0.3,0.5,0.2,0.7C109.8,39.3,109.6,39.4,109.4,39.4z"/>
					</g>
					<g>
						<path class="st1" d="M111.4,32.1H104c-0.3,0-0.5-0.2-0.5-0.5s0.2-0.5,0.5-0.5h7.4c0.3,0,0.5,0.2,0.5,0.5
							S111.7,32.1,111.4,32.1z"/>
					</g>
					<g>
						<path class="st1" d="M103,28.6c-0.2,0-0.4-0.1-0.5-0.3c-0.1-0.3-0.1-0.6,0.2-0.7l6.4-3.7c0.3-0.1,0.6-0.1,0.7,0.2
							c0.1,0.3,0.1,0.6-0.2,0.7l-6.4,3.7C103.2,28.5,103.1,28.6,103,28.6z"/>
					</g>
					<g>
						<path class="st1" d="M100.4,26c-0.1,0-0.2,0-0.3-0.1c-0.3-0.1-0.3-0.5-0.2-0.7l3.7-6.4c0.1-0.3,0.5-0.3,0.7-0.2
							c0.3,0.1,0.3,0.5,0.2,0.7l-3.7,6.4C100.8,25.9,100.6,26,100.4,26z"/>
					</g>
				</g>
				<g>
					<g>
						<path class="st0" d="M29.3,46.6c-8.3,0-15.1-6.8-15.1-15.1S21,16.5,29.3,16.5c8.3,0,15.1,6.8,15.1,15.1S37.6,46.6,29.3,46.6z
							 M29.3,17.6c-7.7,0-14,6.3-14,14s6.3,14,14,14c7.7,0,14-6.3,14-14S37,17.6,29.3,17.6z"/>
					</g>
					<g>
						<g>
							<path class="st0" d="M26.8,38.7c-2.2,0-4.3-0.9-5.9-2.4h0c-1.7-1.7-2.6-4.1-2.4-6.6l0-0.5l0.5,0c2.4-0.2,4.8,0.7,6.6,2.4
								c1.7,1.7,2.6,4.1,2.4,6.6l0,0.5l-0.5,0C27.3,38.7,27,38.7,26.8,38.7z M21.7,35.5c1.4,1.4,3.3,2.2,5.3,2.1
								c0-2-0.7-3.9-2.1-5.3c-1.4-1.4-3.3-2.2-5.3-2.1C19.5,32.2,20.3,34.1,21.7,35.5L21.7,35.5z"/>
						</g>
						<g>
							<path class="st0" d="M28.4,38.7c-0.3,0-0.6,0-0.9,0l-0.5,0l0-0.5c-0.3-3.4,1-6.8,3.4-9.2c2.4-2.4,5.8-3.6,9.2-3.4l0.5,0
								l0,0.5c0.3,3.4-1,6.8-3.4,9.2l0,0C34.5,37.5,31.5,38.7,28.4,38.7z M28,37.6c2.9,0.1,5.8-1,7.9-3.1c2.1-2.1,3.2-4.9,3.1-7.9
								c-2.9-0.1-5.8,1-7.9,3.1C29,31.9,27.9,34.7,28,37.6z"/>
						</g>
					</g>
					<g>
						<path class="st0" d="M27.5,42.4c-0.3,0-0.5-0.2-0.5-0.5v-6.2c0-0.3,0.2-0.5,0.5-0.5c0.3,0,0.5,0.2,0.5,0.5v6.2
							C28,42.2,27.8,42.4,27.5,42.4z"/>
					</g>
				</g>
				<g>
					<g>
						<path class="st2" d="M164.6,46.6c-8.3,0-15.1-6.8-15.1-15.1s6.8-15.1,15.1-15.1c8.3,0,15.1,6.8,15.1,15.1
							S172.9,46.6,164.6,46.6z M164.6,17.6c-7.7,0-14,6.3-14,14s6.3,14,14,14c7.7,0,14-6.3,14-14S172.3,17.6,164.6,17.6z"/>
					</g>
					<g>
						<path class="st2" d="M154.5,42.3c-0.1,0-0.3-0.1-0.4-0.2c-0.2-0.2-0.2-0.6,0-0.8L174.4,21c0.2-0.2,0.6-0.2,0.8,0
							c0.2,0.2,0.2,0.6,0,0.8l-20.3,20.3C154.8,42.2,154.6,42.3,154.5,42.3z"/>
					</g>
				</g>
			</g>
		</g>
	</g>
</g>
</svg>
